<?xml version="1.0" encoding="utf-8"?>
<!-- Generator: Adobe Illustrator 21.0.0, SVG Export Plug-In . SVG Version: 6.00 Build 0)  -->
<svg version="1.1" id="Layer_2" xmlns="http://www.w3.org/2000/svg" xmlns:xlink="http://www.w3.org/1999/xlink" x="0px" y="0px"
	 viewBox="0 0 1400 1400" style="enable-background:new 0 0 1400 1400;" xml:space="preserve">
<style type="text/css">
	.st0{fill:#35200B;}
	.st1{fill:#EABE71;}
	.st2{fill:#FFFFFF;}
</style>
<rect class="st0" width="1400" height="1400"/>
<path class="st1" d="M692.1,318c187.8,0,342.8,140.2,366,321.7V421.6l-366-211.3L326,421.6v218.1C349.3,458.2,504.3,318,692.1,318z"
	/>
<polygon class="st2" points="1189.1,699.5 700,699.5 210.9,699.5 260.8,786.8 210.9,874.1 700,874.1 1189.1,874.1 1139.2,786.8 "/>
<g>
	<polygon class="st1" points="1093.6,687.1 1083.6,687.1 1083.6,409.2 692.1,183.2 300.5,409.2 300.5,687.1 290.5,687.1 
		290.5,403.4 692.1,171.6 1093.6,403.4 	"/>
</g>
<g>
	<rect x="853.3" y="951.7" class="st2" width="215.5" height="8.8"/>
	<rect x="315.4" y="951.7" class="st2" width="215.5" height="8.8"/>
</g>
<g>
	<path class="st0" d="M384.6,783.3h21.4v23c-1.2,0.7-2.6,1.5-4.3,2.3c-1.7,0.8-3.6,1.5-5.9,2.1c-2.2,0.6-4.7,1.1-7.6,1.6
		c-2.8,0.4-6,0.6-9.5,0.6c-5.2,0-9.9-0.7-14.1-2c-4.2-1.3-7.8-3.4-10.8-6.2c-3-2.8-5.3-6.5-6.9-11.1c-1.6-4.5-2.4-10.1-2.4-16.6
		c0-6.5,0.8-12,2.4-16.6c1.6-4.6,3.9-8.3,6.8-11.1c2.9-2.8,6.5-4.9,10.7-6.2c4.2-1.3,8.9-2,14.1-2c3.6,0,6.7,0.2,9.5,0.6
		c2.8,0.4,5.3,0.9,7.5,1.6c2.2,0.6,4.2,1.3,5.9,2.1c1.7,0.8,3.2,1.6,4.5,2.3v22.2h-21.4v-6.4c0-2.3-0.5-4-1.5-5
		c-1-1-2.5-1.6-4.5-1.6c-2,0-3.5,0.5-4.5,1.6c-1,1-1.5,2.7-1.5,5v26.9c0,2.3,0.5,4,1.5,5c1,1,2.5,1.6,4.5,1.6c2,0,3.5-0.5,4.5-1.6
		c1-1,1.5-2.7,1.5-5V783.3z"/>
	<path class="st0" d="M477.3,787c0,4.4-0.6,8.2-1.9,11.4c-1.2,3.2-3,5.9-5.4,8.1c-2.3,2.2-5.2,3.8-8.5,4.8c-3.3,1.1-7,1.6-11.1,1.6
		c-4.1,0-7.8-0.5-11.1-1.6c-3.3-1.1-6.2-2.7-8.5-4.8c-2.3-2.2-4.1-4.9-5.4-8.1c-1.2-3.2-1.9-7-1.9-11.4c0-4.3,0.6-8.1,1.9-11.4
		c1.2-3.3,3-6,5.4-8.1c2.3-2.2,5.2-3.8,8.5-4.8c3.3-1.1,7-1.6,11.1-1.6c4.1,0,7.8,0.5,11.1,1.6c3.3,1.1,6.2,2.7,8.5,4.8
		c2.3,2.2,4.1,4.9,5.4,8.1C476.7,778.8,477.3,782.6,477.3,787z M450.4,797.1c1.7,0,3-0.4,3.9-1.3c0.9-0.9,1.3-2.3,1.3-4.4v-8.9
		c0-2-0.4-3.5-1.3-4.4c-0.9-0.9-2.2-1.3-3.9-1.3c-1.7,0-3,0.4-3.9,1.3c-0.9,0.9-1.3,2.3-1.3,4.4v8.9c0,2,0.4,3.5,1.3,4.4
		C447.4,796.7,448.7,797.1,450.4,797.1z"/>
	<path class="st0" d="M493.8,762.2h4.1c0-7.2,1.8-12.5,5.3-15.9c3.6-3.4,8.7-5.1,15.4-5.1c2.5,0,4.9,0.2,7.1,0.7
		c2.2,0.4,4,1,5.5,1.6v14c-1.5-0.2-2.7-0.3-3.7-0.4c-1-0.1-2.1-0.1-3.2-0.1c-2.3,0-3.9,0.4-4.8,1.2c-0.9,0.8-1.3,2.1-1.3,4h6.9v14.6
		h-6.9v20.3h6.9v14.6h-31.3v-14.6h3.9v-20.3h-3.9V762.2z"/>
	<path class="st0" d="M541.9,762.2h4.1c0-7.2,1.8-12.5,5.3-15.9c3.6-3.4,8.7-5.1,15.4-5.1c2.5,0,4.9,0.2,7.1,0.7
		c2.2,0.4,4,1,5.5,1.6v14c-1.5-0.2-2.7-0.3-3.7-0.4c-1-0.1-2.1-0.1-3.2-0.1c-2.3,0-3.9,0.4-4.8,1.2c-0.9,0.8-1.3,2.1-1.3,4h6.9v14.6
		h-6.9v20.3h6.9v14.6h-31.3v-14.6h3.9v-20.3h-3.9V762.2z"/>
	<path class="st0" d="M615.9,761c4.6,0,8.4,0.7,11.4,2c3,1.3,5.5,3.1,7.3,5.2c1.8,2.1,3.1,4.6,3.9,7.3c0.7,2.7,1.1,5.5,1.1,8.3v6.4
		h-28.8v0.5c0,2.1,0.6,3.7,1.8,4.8c1.2,1.1,3.4,1.6,6.6,1.6c3.9,0,7.5-0.3,10.8-0.9c3.3-0.6,6-1.2,8.1-2v14.2
		c-1.1,0.5-2.3,1.1-3.7,1.6c-1.4,0.5-3,1-4.8,1.4c-1.8,0.4-3.8,0.8-6.1,1.1c-2.3,0.3-4.8,0.4-7.7,0.4c-4.1,0-7.8-0.5-11.1-1.6
		c-3.3-1.1-6.2-2.7-8.5-4.8c-2.3-2.2-4.1-4.9-5.4-8.1c-1.2-3.2-1.9-7-1.9-11.4c0-4.3,0.6-8.1,1.9-11.4c1.2-3.3,3-6,5.4-8.1
		c2.3-2.2,5.2-3.8,8.5-4.8C608.1,761.5,611.8,761,615.9,761z M615.9,776.8c-1.7,0-3,0.4-3.9,1.3c-0.9,0.9-1.3,2.3-1.3,4.4v0.5h10.3
		v-0.5c0-2-0.4-3.5-1.3-4.4C618.9,777.3,617.6,776.8,615.9,776.8z"/>
	<path class="st0" d="M682.5,761c4.6,0,8.4,0.7,11.4,2c3,1.3,5.5,3.1,7.3,5.2c1.8,2.1,3.1,4.6,3.9,7.3c0.7,2.7,1.1,5.5,1.1,8.3v6.4
		h-28.8v0.5c0,2.1,0.6,3.7,1.8,4.8c1.2,1.1,3.4,1.6,6.6,1.6c3.9,0,7.5-0.3,10.8-0.9c3.3-0.6,6-1.2,8.1-2v14.2
		c-1.1,0.5-2.3,1.1-3.7,1.6c-1.4,0.5-3,1-4.8,1.4c-1.8,0.4-3.8,0.8-6.1,1.1c-2.3,0.3-4.8,0.4-7.7,0.4c-4.1,0-7.8-0.5-11.1-1.6
		c-3.3-1.1-6.2-2.7-8.5-4.8c-2.3-2.2-4.1-4.9-5.4-8.1c-1.2-3.2-1.9-7-1.9-11.4c0-4.3,0.6-8.1,1.9-11.4c1.2-3.3,3-6,5.4-8.1
		c2.3-2.2,5.2-3.8,8.5-4.8C674.7,761.5,678.4,761,682.5,761z M682.5,776.8c-1.7,0-3,0.4-3.9,1.3c-0.9,0.9-1.3,2.3-1.3,4.4v0.5h10.3
		v-0.5c0-2-0.4-3.5-1.3-4.4C685.5,777.3,684.2,776.8,682.5,776.8z"/>
	<path class="st0" d="M790.2,795.8c2,0,3.4-0.3,4.2-0.9c0.8-0.6,1.2-1.5,1.2-2.7c0-0.8-0.3-1.6-1-2.2c-0.7-0.6-2.1-1.3-4.1-2.2
		c-4.4-1.7-8.2-3.2-11.5-4.8c-3.3-1.5-6-3.2-8.2-5c-2.2-1.8-3.8-4-4.8-6.5c-1.1-2.5-1.6-5.4-1.6-8.9c0-3.3,0.5-6.3,1.6-8.9
		c1-2.6,2.7-4.9,5.1-6.8c2.3-1.9,5.5-3.3,9.3-4.3c3.9-1,8.7-1.5,14.4-1.5c5.2,0,10,0.5,14.6,1.6c4.6,1,8.4,2.4,11.4,4.1v15.9H802
		c0-1.7-0.5-2.9-1.4-3.5c-0.9-0.6-2.1-0.9-3.5-0.9c-2,0-3.4,0.3-4.2,0.8c-0.9,0.5-1.3,1.4-1.3,2.6c0,1,0.5,1.8,1.4,2.2
		c0.9,0.5,2.3,1,4.1,1.6c3.4,1.1,6.7,2.3,9.7,3.6c3.1,1.2,5.7,2.8,8.1,4.6c2.3,1.8,4.1,4.1,5.5,6.7c1.3,2.6,2,5.8,2,9.6
		c0,7.7-2.5,13.5-7.5,17.2c-5,3.8-12.3,5.7-21.9,5.7c-5.5,0-10.7-0.5-15.8-1.4c-5-0.9-9.1-2.1-12.1-3.4v-17.6h19.6
		c0,1.8,0.4,3.1,1.1,4C786.5,795.3,788,795.8,790.2,795.8z"/>
	<path class="st0" d="M870.1,797.1h3.9v-14.6c0-2-0.4-3.5-1.3-4.4c-0.9-0.9-2.2-1.3-3.9-1.3c-1.7,0-3,0.4-3.9,1.3
		c-0.9,0.9-1.3,2.3-1.3,4.4v14.6h3.9v14.6h-28.3v-14.6h3.9v-40h-3.9v-14.6h24.4v25.8c0.7-0.7,1.5-1.5,2.4-2.4
		c0.9-0.9,1.9-1.6,3.2-2.4c1.2-0.7,2.6-1.3,4.1-1.8c1.5-0.5,3.3-0.8,5.3-0.8c4.9,0,8.7,1.7,11.5,5.2c2.8,3.5,4.2,8.9,4.2,16.3v14.6
		h3.9v14.6h-28.3V797.1z"/>
	<path class="st0" d="M967.9,787c0,4.4-0.6,8.2-1.9,11.4c-1.2,3.2-3,5.9-5.4,8.1c-2.3,2.2-5.2,3.8-8.5,4.8c-3.3,1.1-7,1.6-11.1,1.6
		c-4.1,0-7.8-0.5-11.1-1.6c-3.3-1.1-6.2-2.7-8.5-4.8c-2.3-2.2-4.1-4.9-5.4-8.1c-1.2-3.2-1.9-7-1.9-11.4c0-4.3,0.6-8.1,1.9-11.4
		c1.2-3.3,3-6,5.4-8.1c2.3-2.2,5.2-3.8,8.5-4.8c3.3-1.1,7-1.6,11.1-1.6c4.1,0,7.8,0.5,11.1,1.6c3.3,1.1,6.2,2.7,8.5,4.8
		c2.3,2.2,4.1,4.9,5.4,8.1C967.3,778.8,967.9,782.6,967.9,787z M941.1,797.1c1.7,0,3-0.4,3.9-1.3c0.9-0.9,1.3-2.3,1.3-4.4v-8.9
		c0-2-0.4-3.5-1.3-4.4c-0.9-0.9-2.2-1.3-3.9-1.3c-1.7,0-3,0.4-3.9,1.3c-0.9,0.9-1.3,2.3-1.3,4.4v8.9c0,2,0.4,3.5,1.3,4.4
		C938.1,796.7,939.3,797.1,941.1,797.1z"/>
	<path class="st0" d="M1013.8,831.5h-30.5v-14.6h3.9v-40h-3.9v-14.6h24.4v6.1c0.5-0.7,1.2-1.5,2.1-2.4c0.9-0.9,1.9-1.6,3.1-2.4
		c1.2-0.7,2.5-1.3,3.9-1.8c1.4-0.5,3-0.8,4.7-0.8c6.2,0,10.8,2.3,13.7,6.8c3,4.5,4.5,10.9,4.5,19.2c0,8.2-1.5,14.6-4.5,19.2
		c-3,4.5-7.6,6.8-13.7,6.8c-1.7,0-3.3-0.3-4.7-0.8c-1.4-0.5-2.7-1.1-3.9-1.8c-1.2-0.7-2.2-1.5-3.1-2.4c-0.9-0.9-1.6-1.6-2.1-2.4
		v11.2h6.1V831.5z M1018,782.5c0-2-0.4-3.5-1.3-4.4c-0.9-0.9-2.2-1.3-3.9-1.3c-1.7,0-3,0.4-3.9,1.3c-0.9,0.9-1.3,2.3-1.3,4.4v8.9
		c0,2,0.4,3.5,1.3,4.4c0.9,0.9,2.1,1.3,3.9,1.3c1.7,0,3-0.4,3.9-1.3c0.9-0.9,1.3-2.3,1.3-4.4V782.5z"/>
</g>
<g>
	<path class="st2" d="M507.2,999c2.5,1.1,4.5,2.5,6.2,4.5c1.6,1.9,2.8,4.3,3.6,7.1c0.8,2.8,1.1,5.9,1.1,9.4c0,3.4-0.4,6.5-1.3,9.4
		c-0.9,2.8-2.1,5.2-3.8,7.3c-1.7,2-3.9,3.6-6.4,4.7c-2.6,1.1-5.6,1.7-9.1,1.7c-3.5,0-6.4-0.5-9-1.5c-2.5-1-4.6-2.4-6.2-4.3
		c-1.6-1.9-2.8-4.2-3.6-6.9c-0.8-2.7-1.1-5.8-1.1-9.3c0-3.4,0.4-6.6,1.3-9.4c0.9-2.9,2.1-5.3,3.8-7.4c1.7-2.1,3.9-3.7,6.5-4.8
		c2.6-1.1,5.7-1.7,9.2-1.7C501.8,997.4,504.8,997.9,507.2,999z M491.2,1009.1c-1.3,2.6-1.9,6.3-1.9,11c0,2.2,0.1,4.3,0.4,6.1
		c0.3,1.8,0.8,3.4,1.4,4.8c0.7,1.3,1.6,2.4,2.8,3.1c1.2,0.7,2.7,1.1,4.5,1.1c2.8,0,4.9-1.3,6.2-3.8c1.3-2.5,1.9-6.1,1.9-10.8
		c0-2.2-0.1-4.3-0.4-6.2c-0.3-1.9-0.8-3.5-1.4-4.9c-0.7-1.4-1.6-2.5-2.8-3.2c-1.2-0.8-2.6-1.1-4.4-1.1
		C494.6,1005.1,492.5,1006.4,491.2,1009.1z"/>
	<path class="st2" d="M541.8,1019.3c-0.6,0.3-1.1,0.7-1.6,1.2c-0.5,0.5-1,1.2-1.3,2.1c-0.4,0.9-0.5,1.9-0.5,3.1v16.7H528v-17.1
		c0-2.6-0.2-4.8-0.6-6.5s-0.8-3.1-1.3-4.2c-0.5-1.2-1.1-2.2-1.8-3l8.3-2.6c0.3,0.4,0.7,0.9,1.1,1.5c0.3,0.5,0.6,1.1,1,1.8
		c0.3,0.7,0.6,1.6,0.9,2.6c1.1-2.1,2.4-3.6,3.9-4.5c1.5-0.9,3.3-1.4,5.3-1.4c0.9,0,1.7,0.1,2.5,0.2c0.7,0.2,1.3,0.3,1.8,0.5
		l-2.7,9.9c-0.3-0.2-0.7-0.3-1.2-0.5c-0.5-0.2-1.1-0.2-1.9-0.2C542.9,1018.9,542.4,1019.1,541.8,1019.3z"/>
	<path class="st2" d="M564.9,995.3c1,1.1,1.4,2.5,1.4,4.1c0,1.7-0.5,3.1-1.5,4.3c-1,1.1-2.5,1.7-4.4,1.7c-1.8,0-3.2-0.6-4.2-1.7
		c-1-1.1-1.5-2.4-1.5-4c0-1.7,0.5-3.2,1.5-4.4c1-1.2,2.5-1.7,4.5-1.7C562.6,993.7,564,994.2,564.9,995.3z M557.7,1040.8
		c-1.5-1.3-2.3-3.1-2.3-5.5v-25.8h10.4v22.8c0,1,0.2,1.7,0.5,2c0.3,0.4,0.8,0.5,1.4,0.5c0.3,0,0.7,0,1-0.1c0.4-0.1,0.6-0.1,0.7-0.2
		l0.9,6.5c0,0-0.2,0.1-0.6,0.3c-0.4,0.2-0.8,0.3-1.4,0.5c-0.6,0.2-1.2,0.4-2,0.5c-0.8,0.2-1.6,0.2-2.5,0.2
		C561.3,1042.7,559.2,1042,557.7,1040.8z"/>
	<path class="st2" d="M582.2,1045.8c1.9,0.7,3.6,1.2,5,1.5c1.4,0.4,2.9,0.6,4.6,0.6c1.7,0,3.2-0.5,4.2-1.5c1.1-1,1.6-2.5,1.6-4.3
		c0-2-0.3-3.8-0.9-5.4c-0.7,2-1.8,3.5-3.3,4.6c-1.4,1.1-3.3,1.6-5.6,1.6c-2.1,0-4-0.4-5.6-1.2c-1.6-0.8-2.9-1.9-4-3.3
		c-1-1.4-1.8-3.1-2.3-5.2c-0.5-2-0.8-4.2-0.8-6.7c0-2.5,0.4-4.8,1.2-7c0.8-2.1,1.9-4,3.4-5.5c1.4-1.6,3.2-2.8,5.2-3.6
		c2-0.9,4.2-1.3,6.7-1.3c1.3,0,2.7,0.1,4.1,0.3c1.4,0.2,2.8,0.4,4,0.6c1.2,0.2,2.3,0.4,3.3,0.6c0.9,0.2,1.6,0.3,1.9,0.4l-0.3,16.3
		c0,1.4,0.1,2.7,0.4,3.9c0.2,1.2,0.5,2.4,0.8,3.5c0.3,1.2,0.6,2.4,0.8,3.6c0.3,1.2,0.4,2.5,0.4,3.9c0,4.6-1.3,8.1-3.9,10.6
		c-2.6,2.5-6.1,3.7-10.6,3.7c-2,0-4.1-0.2-6.3-0.7c-2.2-0.5-4.3-1.2-6.4-2L582.2,1045.8z M591.4,1034.3c0.6-0.6,1.1-1.4,1.5-2.4
		c0.4-1,0.8-2.2,1-3.5c0.2-1.3,0.4-2.7,0.4-4.1v-7.2c-0.3-0.1-0.7-0.3-1.3-0.4c-0.5-0.1-1-0.2-1.4-0.2c-1,0-1.9,0.2-2.6,0.7
		c-0.7,0.5-1.3,1.1-1.7,1.9c-0.4,0.8-0.7,1.8-0.9,2.9c-0.2,1.1-0.3,2.4-0.3,3.7c0,1.2,0,2.4,0.1,3.5c0,1.1,0.2,2.1,0.4,3
		c0.2,0.9,0.6,1.6,1,2.1c0.4,0.5,1.1,0.8,1.8,0.8C590.2,1035.2,590.8,1034.9,591.4,1034.3z"/>
	<path class="st2" d="M624.3,995.3c1,1.1,1.4,2.5,1.4,4.1c0,1.7-0.5,3.1-1.5,4.3c-1,1.1-2.5,1.7-4.4,1.7c-1.8,0-3.2-0.6-4.2-1.7
		c-1-1.1-1.5-2.4-1.5-4c0-1.7,0.5-3.2,1.5-4.4c1-1.2,2.5-1.7,4.5-1.7C621.9,993.7,623.3,994.2,624.3,995.3z M617,1040.8
		c-1.5-1.3-2.3-3.1-2.3-5.5v-25.8h10.4v22.8c0,1,0.2,1.7,0.5,2c0.3,0.4,0.8,0.5,1.4,0.5c0.3,0,0.7,0,1-0.1c0.4-0.1,0.6-0.1,0.7-0.2
		l0.9,6.5c0,0-0.2,0.1-0.6,0.3c-0.4,0.2-0.8,0.3-1.4,0.5c-0.6,0.2-1.2,0.4-2,0.5c-0.8,0.2-1.6,0.2-2.5,0.2
		C620.6,1042.7,618.6,1042,617,1040.8z"/>
	<path class="st2" d="M655.4,1042.4V1022c0-1.5-0.2-2.8-0.6-3.7c-0.4-0.9-1.1-1.4-2.1-1.4c-1.2,0-2.4,0.8-3.4,2.4
		c-1,1.6-1.6,3.8-1.6,6.7v16.5h-10.4v-17.1c0-2.6-0.2-4.8-0.6-6.5c-0.4-1.7-0.8-3.1-1.3-4.2c-0.5-1.2-1.1-2.2-1.8-3l8.3-2.6
		c0.4,0.4,0.8,0.9,1.2,1.5c0.4,0.5,0.7,1.1,1,1.9c0.3,0.8,0.6,1.6,0.8,2.6c1.1-2.1,2.7-3.6,4.7-4.5c2-1,4.2-1.4,6.5-1.4
		c3.4,0,5.8,1,7.3,3.1c1.4,2.1,2.2,4.8,2.2,8.3v22H655.4z"/>
	<path class="st2" d="M703.1,1026.6c0,2.6,0.2,4.8,0.5,6.6c0.3,1.8,0.8,3.1,1.2,4.2c0.5,1.3,1.1,2.3,1.8,3l-8.3,2.6
		c-0.5-0.4-0.9-1-1.3-1.6c-0.4-0.6-0.7-1.3-1-2.1c-0.3-0.8-0.6-1.8-0.8-2.9c-0.7,2.1-1.8,3.6-3.3,4.8c-1.4,1.1-3.3,1.7-5.7,1.7
		c-2.1,0-4-0.4-5.6-1.2c-1.6-0.8-2.9-1.9-4-3.3c-1-1.4-1.8-3.1-2.3-5.2c-0.5-2-0.8-4.2-0.8-6.7c0-2.5,0.4-4.8,1.2-7
		c0.8-2.1,1.9-4,3.4-5.5c1.4-1.6,3.2-2.8,5.2-3.6c2-0.9,4.2-1.3,6.7-1.3c1.4,0,2.8,0.1,4.3,0.3c1.5,0.2,2.9,0.4,4.2,0.7
		c1.3,0.2,2.3,0.5,3.2,0.7c0.9,0.2,1.3,0.3,1.3,0.3V1026.6z M689.9,1034.4c0.6-0.6,1.1-1.3,1.5-2.3c0.4-1,0.8-2.1,1-3.3
		c0.2-1.2,0.4-2.6,0.4-4v-7.6c-0.3-0.1-0.7-0.3-1.3-0.4c-0.5-0.1-1-0.2-1.4-0.2c-1,0-1.9,0.2-2.6,0.7c-0.7,0.5-1.3,1.1-1.7,1.9
		c-0.4,0.8-0.7,1.8-0.9,2.9c-0.2,1.1-0.3,2.4-0.3,3.7c0,1.2,0,2.4,0.1,3.5c0,1.1,0.2,2.1,0.4,3c0.2,0.9,0.6,1.6,1,2.1
		c0.4,0.5,1.1,0.8,1.8,0.8C688.6,1035.2,689.3,1034.9,689.9,1034.4z"/>
	<path class="st2" d="M718.3,1042c-1.1-0.4-2-1-2.7-1.8c-0.7-0.8-1.2-1.7-1.6-2.7c-0.3-1-0.5-2.1-0.5-3.3v-37.7l10.4-1.8v37.2
		c0,1,0.2,1.8,0.6,2.2c0.4,0.4,1.1,0.6,2.1,0.6c0.5,0,1,0,1.6-0.1c0.6-0.1,1.1-0.2,1.6-0.3l1,6.5c-0.7,0.3-1.8,0.7-3.3,1.1
		c-1.6,0.4-3.3,0.6-5.2,0.6C720.7,1042.7,719.4,1042.5,718.3,1042z"/>
	<path class="st2" d="M753.9,1009.7h5.4l1.1-6.8l9-2v8.7h7.7l-1.2,7.6h-6.5v14.6c0,1.9,1,2.9,3,2.9c1.1,0,2.1-0.1,3.1-0.3
		c0.5-0.1,1.1-0.3,1.6-0.4l1.8,7c-0.9,0.3-2.1,0.6-3.6,1s-3.4,0.6-5.7,0.6c-3.3,0-5.9-0.7-7.7-2c-1.9-1.4-2.8-3.7-2.8-6.9v-16.4
		h-5.2V1009.7z"/>
	<path class="st2" d="M811.9,1026.6c0,2.6,0.2,4.8,0.5,6.6c0.3,1.8,0.8,3.1,1.2,4.2c0.5,1.3,1.1,2.3,1.8,3l-8.3,2.6
		c-0.5-0.4-0.9-1-1.3-1.6c-0.4-0.6-0.7-1.3-1-2.1c-0.3-0.8-0.6-1.8-0.8-2.9c-0.7,2.1-1.8,3.6-3.3,4.8c-1.4,1.1-3.3,1.7-5.7,1.7
		c-2.1,0-4-0.4-5.6-1.2c-1.6-0.8-2.9-1.9-4-3.3c-1-1.4-1.8-3.1-2.3-5.2c-0.5-2-0.8-4.2-0.8-6.7c0-2.5,0.4-4.8,1.2-7
		c0.8-2.1,1.9-4,3.4-5.5c1.4-1.6,3.2-2.8,5.2-3.6c2-0.9,4.2-1.3,6.7-1.3c1.4,0,2.8,0.1,4.3,0.3c1.5,0.2,2.9,0.4,4.2,0.7
		c1.3,0.2,2.3,0.5,3.2,0.7c0.9,0.2,1.3,0.3,1.3,0.3V1026.6z M798.6,1034.4c0.6-0.6,1.1-1.3,1.5-2.3c0.4-1,0.8-2.1,1-3.3
		c0.2-1.2,0.4-2.6,0.4-4v-7.6c-0.3-0.1-0.7-0.3-1.3-0.4c-0.5-0.1-1-0.2-1.4-0.2c-1,0-1.9,0.2-2.6,0.7c-0.7,0.5-1.3,1.1-1.7,1.9
		c-0.4,0.8-0.7,1.8-0.9,2.9c-0.2,1.1-0.3,2.4-0.3,3.7c0,1.2,0,2.4,0.1,3.5c0,1.1,0.2,2.1,0.4,3c0.2,0.9,0.6,1.6,1,2.1
		c0.4,0.5,1.1,0.8,1.8,0.8C797.4,1035.2,798,1034.9,798.6,1034.4z"/>
	<path class="st2" d="M832.8,1008.9c1.7,0,3.2,0.1,4.6,0.4c1.4,0.3,2.7,0.6,3.8,1c1.3,0.4,2.4,0.9,3.5,1.4l-3.3,7.4
		c-0.4-0.2-0.8-0.4-1.3-0.7c-0.5-0.3-1.1-0.5-1.8-0.8c-0.6-0.3-1.3-0.5-2-0.7c-0.7-0.2-1.4-0.3-2-0.3c-0.7,0-1.3,0.2-1.8,0.5
		c-0.5,0.3-0.7,0.8-0.7,1.4c0,0.7,0.4,1.4,1.3,2.1c0.9,0.7,2.1,1.3,3.6,1.9c2.6,1.1,4.6,2.4,6.1,3.9c1.4,1.5,2.1,3.5,2.1,6.1
		c0,1.4-0.3,2.7-0.8,4c-0.5,1.3-1.2,2.4-2.2,3.4c-1,1-2.2,1.7-3.7,2.3c-1.5,0.6-3.2,0.9-5.1,0.9c-1.5,0-3-0.1-4.3-0.3
		c-1.3-0.2-2.6-0.5-3.7-0.8c-1.1-0.3-2.1-0.7-3-1c-0.9-0.3-1.6-0.6-2.1-0.9l3.4-7.5c0.2,0.1,0.6,0.3,1.1,0.6
		c0.5,0.3,1.2,0.6,1.9,0.9c0.7,0.3,1.5,0.6,2.3,0.8c0.8,0.2,1.6,0.4,2.3,0.4c0.9,0,1.7-0.2,2.3-0.5c0.6-0.3,0.9-0.9,0.9-1.6
		c0-0.8-0.4-1.6-1.1-2.2c-0.7-0.7-1.7-1.2-2.8-1.6c-3.3-1.3-5.6-2.8-7.1-4.4c-1.4-1.6-2.1-3.7-2.1-6.1c0-1.4,0.3-2.7,0.8-3.9
		c0.5-1.2,1.3-2.2,2.3-3.1c1-0.9,2.2-1.6,3.6-2.1C829.4,1009.1,831,1008.9,832.8,1008.9z"/>
	<path class="st2" d="M850,1009.7h5.4l1.1-6.8l9-2v8.7h7.7l-1.2,7.6h-6.5v14.6c0,1.9,1,2.9,3,2.9c1.1,0,2.1-0.1,3.1-0.3
		c0.5-0.1,1.1-0.3,1.6-0.4l1.8,7c-0.9,0.3-2.1,0.6-3.6,1c-1.6,0.4-3.4,0.6-5.7,0.6c-3.3,0-5.9-0.7-7.7-2c-1.9-1.4-2.8-3.7-2.8-6.9
		v-16.4H850V1009.7z"/>
	<path class="st2" d="M879.7,1019.1c0.9-2.3,2-4.1,3.5-5.6c1.5-1.5,3.3-2.7,5.3-3.4c2-0.8,4.2-1.2,6.6-1.2c2.1,0,3.8,0.3,5.2,0.8
		c1.4,0.5,2.6,1.2,3.5,2.1c0.9,0.9,1.6,1.9,2,3.1c0.4,1.2,0.7,2.5,0.7,3.9c0,1.6-0.4,3.1-1.2,4.5c-0.8,1.4-1.9,2.6-3.4,3.7
		c-1.5,1.1-3.2,2-5.3,2.7c-2.1,0.7-4.4,1.2-7.1,1.4c0.3,1.3,0.9,2.4,1.7,3.2c0.8,0.8,2,1.2,3.7,1.2c1,0,2-0.1,3.1-0.3
		c1.1-0.2,2.1-0.5,3-0.7c1.1-0.3,2.2-0.7,3.2-1.1l2,6.8c-1.2,0.6-2.5,1.1-3.9,1.5c-1.2,0.4-2.5,0.7-4.1,1c-1.6,0.3-3.2,0.5-5,0.5
		c-2.7,0-5-0.4-6.9-1.2c-1.9-0.8-3.5-1.9-4.7-3.3c-1.2-1.4-2.1-3.1-2.6-5.1c-0.5-2-0.8-4.2-0.8-6.6
		C878.4,1023.9,878.9,1021.4,879.7,1019.1z M891.7,1017c-0.6,0.5-1.1,1.1-1.4,1.9c-0.4,0.8-0.6,1.7-0.8,2.6c-0.2,1-0.3,1.9-0.3,2.8
		c1.3,0,2.4-0.2,3.3-0.6c0.9-0.3,1.6-0.8,2.2-1.3c0.6-0.5,1-1.1,1.2-1.7s0.4-1.2,0.4-1.7c0-0.8-0.2-1.5-0.7-2
		c-0.5-0.5-1.1-0.8-1.8-0.8C893,1016.2,892.3,1016.5,891.7,1017z"/>
</g>
<g>
	<path class="st2" d="M602.6,965h-19.2c0.3,2.7,1.2,4.8,2.7,6.4c1.5,1.6,3.6,2.4,6.2,2.4c1.6,0,3.1-0.3,4.5-1c1.5-0.6,3-1.6,4.5-2.8
		h0.2v4.6c-1.5,1.1-3,1.9-4.5,2.4c-1.5,0.5-3.1,0.8-4.8,0.8c-2.8,0-5.2-0.6-7.2-1.8c-2-1.2-3.6-2.9-4.7-5.1
		c-1.1-2.2-1.6-4.6-1.6-7.5c0-2.7,0.5-5.1,1.5-7.2c1-2.1,2.4-3.8,4.2-5c1.8-1.2,4-1.8,6.4-1.8c2.5,0,4.6,0.6,6.4,1.8
		c1.8,1.2,3.1,2.9,4.1,5.1c0.9,2.1,1.4,4.6,1.4,7.3V965z M585.7,955.5c-1.3,1.6-2,3.6-2.3,6h14.5c-0.2-2.5-0.9-4.6-2.1-6.1
		c-1.2-1.5-2.8-2.3-5-2.3S586.9,953.9,585.7,955.5z"/>
	<path class="st2" d="M613.7,977c-1.6-0.5-3.1-1.2-4.5-2.2V970c3.2,2.4,6.3,3.6,9.3,3.6c1.8,0,3.3-0.4,4.4-1.1
		c1.1-0.7,1.7-1.7,1.7-3c0-0.9-0.3-1.6-0.8-2.1c-0.5-0.6-1.2-1-2-1.3c-0.8-0.3-1.9-0.7-3.4-1.1c-1.8-0.5-3.3-1-4.5-1.5
		c-1.2-0.5-2.2-1.2-3-2.2c-0.8-1-1.2-2.3-1.2-3.9c0-2.4,0.9-4.4,2.8-5.8c1.8-1.5,4.2-2.2,7.2-2.2c3,0,5.7,0.8,8.1,2.3v4.6
		c-1.3-1-2.7-1.8-3.9-2.2c-1.3-0.4-2.6-0.7-4-0.7c-1.7,0-3.1,0.3-4.1,0.9c-1,0.6-1.5,1.5-1.5,2.6c0,0.8,0.3,1.5,0.8,2
		c0.5,0.5,1.2,0.9,2,1.2c0.8,0.3,1.9,0.7,3.4,1.1c1.9,0.6,3.4,1.1,4.6,1.6c1.2,0.5,2.2,1.3,3,2.3c0.8,1,1.2,2.3,1.2,4
		c0,1.7-0.4,3.1-1.3,4.4c-0.9,1.3-2.1,2.3-3.7,3c-1.6,0.7-3.4,1.1-5.4,1.1C616.9,977.7,615.3,977.5,613.7,977z"/>
	<path class="st2" d="M643.1,950h7.5v3.9h-7.5v15.5c0,1.3,0.3,2.3,0.9,3.1c0.6,0.8,1.4,1.2,2.5,1.2c0.8,0,1.4-0.1,2.1-0.2
		c0.6-0.2,1.3-0.4,2.1-0.8v4c-0.8,0.4-1.6,0.6-2.3,0.8c-0.7,0.1-1.6,0.2-2.6,0.2c-2.2,0-4-0.7-5.2-2.1c-1.3-1.4-1.9-3.3-1.9-5.7v-16
		h-5.2V950h5.2v-7.3l4.6-2.4V950z"/>
	<path class="st2" d="M657.1,976.7c-0.7-0.7-1-1.5-1-2.6c0-1.1,0.3-1.9,1-2.6c0.7-0.7,1.5-1,2.5-1c1,0,1.8,0.3,2.5,1
		c0.7,0.7,1,1.5,1,2.6c0,1.1-0.3,1.9-1,2.6c-0.7,0.7-1.5,1-2.5,1C658.6,977.7,657.8,977.4,657.1,976.7z"/>
	<path class="st2" d="M709,972.7v4.4h-24v-3.5l13-13.9c2-2.1,3.4-3.9,4.1-5.1c0.7-1.3,1.1-2.5,1.1-3.8c0-2-0.7-3.6-2-4.6
		c-1.4-1.1-3.3-1.6-5.7-1.6c-3.3,0-6.4,1-9.3,2.9v-4.6c2.9-1.7,6-2.5,9.5-2.5c2.5,0,4.6,0.4,6.5,1.2c1.9,0.8,3.3,2,4.3,3.5
		c1,1.5,1.5,3.2,1.5,5.2c0,1.8-0.4,3.7-1.3,5.6c-0.9,1.9-2.2,3.7-3.9,5.5l-11.2,11.5H709z"/>
	<path class="st2" d="M719.2,972.6c-2.1-3.4-3.2-7.9-3.2-13.6c0-5.6,1.1-10.2,3.2-13.6c2.1-3.4,5.4-5.1,9.9-5.1
		c4.5,0,7.8,1.7,9.9,5.1c2.1,3.4,3.2,7.9,3.2,13.6c0,5.6-1.1,10.2-3.2,13.6c-2.1,3.4-5.4,5.1-9.9,5.1
		C724.7,977.7,721.4,976,719.2,972.6z M735.6,969.7c1.2-2.6,1.8-6.1,1.8-10.7c0-4.5-0.6-8.1-1.8-10.7c-1.2-2.6-3.3-3.9-6.4-3.9
		c-3.1,0-5.3,1.3-6.4,3.9c-1.2,2.6-1.8,6.1-1.8,10.7c0,4.5,0.6,8.1,1.8,10.7c1.2,2.6,3.3,3.9,6.4,3.9
		C732.3,973.6,734.5,972.3,735.6,969.7z"/>
	<path class="st2" d="M751.4,972.6c-2.1-3.4-3.2-7.9-3.2-13.6c0-5.6,1.1-10.2,3.2-13.6c2.1-3.4,5.4-5.1,9.9-5.1s7.8,1.7,9.9,5.1
		c2.1,3.4,3.2,7.9,3.2,13.6c0,5.6-1.1,10.2-3.2,13.6c-2.1,3.4-5.4,5.1-9.9,5.1S753.6,976,751.4,972.6z M767.8,969.7
		c1.2-2.6,1.8-6.1,1.8-10.7c0-4.5-0.6-8.1-1.8-10.7c-1.2-2.6-3.3-3.9-6.4-3.9c-3.1,0-5.3,1.3-6.4,3.9c-1.2,2.6-1.8,6.1-1.8,10.7
		c0,4.5,0.6,8.1,1.8,10.7c1.2,2.6,3.3,3.9,6.4,3.9C764.5,973.6,766.7,972.3,767.8,969.7z"/>
	<path class="st2" d="M805.6,972.8v4.3h-24v-4.3h10.7v-26l-7.3,3.7h-0.2l-0.9-3v-0.2l9.6-6.4h3.4v31.8H805.6z"/>
</g>
<path class="st2" d="M688.3,403.7c9-8.4,37.4-19.8,35.2-50.3c-1.2-17-10.5-25.2-10.5-25.2s4.7,7.2,3.2,28
	c-1.5,21.6-24.4,26.8-36.1,48.3c-8.5,15.5,0,27.7,0,27.7C679.9,430,678.4,412.9,688.3,403.7z M682.8,436.9
	c-7,18.3,15.3,44.3,15.3,44.3s-9.3-29.6-3.4-43.5c5.3-12.6,50.7-26,47.6-58.8c-1.7-18.4-15.3-27.1-15.3-27.1s6.8,7.8,4.7,30.2
	C729.5,405.2,694.1,407.5,682.8,436.9z M901.7,503.1c-9.2-10.8-22.9-16.8-38.7-16.8c-12.3,0-23.5,6.1-32.7,13.8
	c0.4-7.7,0.6-12.6,0.6-12.6H538.4c0,0,1.9,57.9,10.6,91.5c8.8,33.6,47.6,65.7,47.6,65.7h176c0,0,25.7-21.3,40-47.3
	c2.1,0.3,4.4,0.4,6.8,0.4c16.6,0,38.4-6.8,56.8-18.4c19.7-12.3,32-28.1,34.7-44.4C912.9,523.9,909.5,512.3,901.7,503.1z
	 M829.3,516.2c0,0,21.3-23.8,39.8-15.5c0,0-27.2,3.1-40.7,27.4L829.3,516.2z M827.7,533.5c7.6-10.5,22-26.6,35.3-26.6
	c9.6,0,17.7,3.4,22.9,9.5c3.8,4.5,5.5,10,4.7,15.1c-1.7,10.4-10.7,21.2-25.3,30.3c-15.4,9.7-33.2,14.9-44.6,15.2
	C823.9,564.4,826.1,548.4,827.7,533.5z M563.2,496.5c4.2-0.4,8.3-0.6,12.5-0.6c4.2,0,8.3,0.2,12.5,0.6c4.2,0.4,8.3,1,12.5,2.2
	c-4.2,1.2-8.3,1.8-12.5,2.2c-4.2,0.4-8.3,0.6-12.5,0.6c-4.2,0-8.3-0.2-12.5-0.6c-4.2-0.4-8.3-1-12.5-2.2
	C554.8,497.6,559,497,563.2,496.5z M563.9,506.9c4.1-0.4,8.2-0.6,12.3-0.6c4.1,0,8.2,0.2,12.3,0.6c4.1,0.4,8.2,1,12.3,2.2
	c-4.1,1.2-8.2,1.7-12.3,2.2c-4.1,0.4-8.2,0.6-12.3,0.6c-4.1,0-8.2-0.2-12.3-0.6c-4.1-0.4-8.2-1-12.3-2.2
	C555.7,507.9,559.8,507.4,563.9,506.9z M567.9,517.8c3.6-0.4,7.2-0.5,10.8-0.5c3.6,0,7.2,0.2,10.8,0.5c3.6,0.4,7.2,0.9,10.8,1.9
	c-3.6,1-7.2,1.5-10.8,1.9c-3.6,0.4-7.2,0.5-10.8,0.5c-3.6,0-7.2-0.2-10.8-0.5c-3.6-0.4-7.2-0.9-10.8-1.9
	C560.7,518.7,564.3,518.2,567.9,517.8z M567.8,530.6c3.5-0.3,7-0.5,10.5-0.5c3.5,0,7,0.2,10.5,0.5c3.5,0.4,7,0.9,10.5,1.9
	c-3.5,1-7,1.5-10.5,1.9c-3.5,0.3-7,0.5-10.5,0.5c-3.5,0-7-0.2-10.5-0.5c-3.5-0.4-7-0.9-10.5-1.8C560.8,531.5,564.3,531,567.8,530.6z
	 M571.5,543.6c3.1-0.3,6.3-0.5,9.4-0.5c3.1,0,6.3,0.1,9.4,0.5c3.1,0.3,6.3,0.8,9.4,1.7c-3.1,0.9-6.3,1.3-9.4,1.7
	c-3.1,0.3-6.3,0.5-9.4,0.5c-3.1,0-6.3-0.1-9.4-0.5c-3.1-0.3-6.3-0.8-9.4-1.7C565.2,544.4,568.3,543.9,571.5,543.6z M574.1,554.6
	c2.8-0.3,5.7-0.4,8.5-0.4c2.8,0,5.7,0.1,8.5,0.4c2.8,0.3,5.7,0.7,8.5,1.5c-2.8,0.8-5.7,1.2-8.5,1.5c-2.8,0.3-5.7,0.4-8.5,0.4
	c-2.8,0-5.7-0.1-8.5-0.4c-2.8-0.3-5.7-0.7-8.5-1.5C568.4,555.3,571.2,554.9,574.1,554.6z M576.3,568.1c2.7-0.3,5.4-0.4,8.1-0.4
	c2.7,0,5.4,0.1,8.1,0.4c2.7,0.3,5.4,0.7,8.1,1.4c-2.7,0.8-5.4,1.1-8.1,1.4c-2.7,0.3-5.4,0.4-8.1,0.4c-2.7,0-5.4-0.1-8.1-0.4
	c-2.7-0.3-5.4-0.7-8.1-1.4C570.9,568.8,573.6,568.4,576.3,568.1z M578.7,577.2c2.4-0.2,4.9-0.4,7.3-0.4c2.4,0,4.9,0.1,7.3,0.4
	c2.4,0.3,4.9,0.6,7.3,1.3c-2.4,0.7-4.9,1-7.3,1.3c-2.4,0.2-4.9,0.4-7.3,0.4c-2.4,0-4.9-0.1-7.3-0.4c-2.4-0.3-4.9-0.6-7.3-1.3
	C573.9,577.8,576.3,577.5,578.7,577.2z M580.3,584.7c2.2-0.2,4.4-0.3,6.6-0.3c2.2,0,4.4,0.1,6.6,0.3c2.2,0.2,4.4,0.5,6.6,1.2
	c-2.2,0.6-4.4,0.9-6.6,1.2c-2.2,0.2-4.4,0.3-6.6,0.3c-2.2,0-4.4-0.1-6.6-0.3c-2.2-0.2-4.4-0.5-6.6-1.2
	C575.9,585.3,578.1,585,580.3,584.7z M584.9,593.7c1.8-0.2,3.6-0.3,5.4-0.3c1.8,0,3.6,0.1,5.4,0.3c1.8,0.2,3.6,0.4,5.4,1
	c-1.8,0.5-3.6,0.8-5.4,1c-1.8,0.2-3.6,0.3-5.4,0.3c-1.8,0-3.6-0.1-5.4-0.3c-1.8-0.2-3.6-0.4-5.4-1
	C581.3,594.1,583.1,593.9,584.9,593.7z M583.1,602.5c1.5-0.4,3.1-0.7,4.6-0.8c1.5-0.2,3.1-0.2,4.6-0.2c1.5,0,3.1,0.1,4.6,0.2
	c1.5,0.2,3.1,0.4,4.6,0.8c-1.5,0.4-3.1,0.7-4.6,0.8c-1.5,0.2-3.1,0.2-4.6,0.2c-1.5,0-3.1-0.1-4.6-0.2
	C586.2,603.2,584.6,603,583.1,602.5z M594.7,611.2c-1.2-0.1-2.5-0.3-3.7-0.7c1.2-0.3,2.5-0.5,3.7-0.7c1.2-0.1,2.5-0.2,3.7-0.2
	c1.2,0,2.5,0.1,3.7,0.2c1.2,0.1,2.5,0.3,3.7,0.7c-1.2,0.3-2.5,0.5-3.7,0.7c-1.2,0.1-2.5,0.2-3.7,0.2
	C597.1,611.3,595.9,611.3,594.7,611.2z M608,620.3c-0.8,0.1-1.6,0.1-2.4,0.1c-0.8,0-1.6,0-2.4-0.1c-0.8-0.1-1.6-0.2-2.4-0.4
	c0.8-0.2,1.6-0.3,2.4-0.4c0.8-0.1,1.6-0.1,2.4-0.1c0.8,0,1.6,0,2.4,0.1c0.8,0.1,1.6,0.2,2.4,0.4C609.6,620.1,608.8,620.2,608,620.3z
	 M803.8,574.1c-2.9,10.4-8.9,20.6-15.7,29.8l-37,37.9l-1.1-0.1h-13.2c0,0,0.1-0.1,0.2-0.2l-96.1-3.3l57.4-0.8l-57.4-4.6l48.3-0.8
	l-48.3-3.9l65-1l-65-5.3l67.9-1.1l-64.4-5.2l93.9-1.5L648,607l96.6-1.5l-75.4-6.9l101.1-1.8c0,0,0-0.1,0-0.1l-95.2-8.8l83-1.5
	l-79.2-7.3l98.6-1.8l-93.2-8.6l95.5-1.7c0.1-0.6,0.2-1.2,0.3-1.9l-93-9l94.4-1.8c0-0.5,0.1-0.9,0.1-1.4l-97.4-9.4l98.3-1.8
	c0-0.3,0-0.6,0.1-1l-95.6-9.7l88.8-1.8l-82.5-7.1l90-1.5c0-0.3,0-0.6,0-0.9l-79.9-7.5l79.9-1.5c0-0.3,0-0.5,0-0.8l-68.5-6.4
	l68.3-1.2c0-0.2,0-0.4,0-0.6l-59.4-5.6l59.2-1.1c0,0,0,0,0,0h31.9C813.5,515.2,810.5,550.5,803.8,574.1z M905.3,542.5
	c-3.6,13.9-28.9,33.7-44.5,40.4c-16.8,7.2-35.5,12.2-43.8,10.5l1.7-6.1c0,0,28-0.6,57.3-18.7c16.9-10.5,29.3-26,27.7-52.3
	C903.7,516.2,908.9,528.6,905.3,542.5z M575.5,680.8c24.8,0,116.6,0,116.6,0s91.8,0,116.6,0c24.8,0,63.1-28.7,63.1-28.7H512.4
	C512.4,652.1,550.6,680.8,575.5,680.8z M681.5,670l98-2.2l-85.2-3.8l88.9-0.9l-67-4.1h120.6c0,0-22.2,17.5-33.2,17.5
	s-197.3,0-197.3,0l159.1-3.8L681.5,670z"/>
<g>
	<polygon class="st1" points="692.1,1228.4 290.1,996.3 290.1,905.2 301.1,905.2 301.1,990 692.1,1215.7 1083.1,990 1083.1,905.2 
		1094.1,905.2 1094.1,996.3 1091.3,997.9 	"/>
</g>
<path class="st1" d="M808,590c7.7-17.3,13.7-96.3,13.7-96.3H613c0,0,34,7,39.3,9c5.3,2,11,28.7,5.7,59.7s-20.3,28.3-34,38.3
	c-11,8-7.7,34-5.9,44h142.8C772.1,635,801.1,605.7,808,590z M750,641.8h-13.2c0,0,0.1-0.1,0.2-0.2l-96.1-3.3l57.4-0.8l-57.4-4.6
	l48.3-0.8l-48.3-3.9l65-1l-65-5.3l67.9-1.1l-64.4-5.2l93.9-1.5L648,607l96.6-1.5l-75.4-6.9l101.1-1.8c0,0,0-0.1,0-0.1l-95.2-8.8
	l83-1.5l-79.2-7.3l98.6-1.8l-93.2-8.6l95.5-1.7c0.1-0.6,0.2-1.2,0.3-1.9l-93-9l94.4-1.8c0-0.5,0.1-0.9,0.1-1.4l-97.4-9.4l98.3-1.8
	c0-0.3,0-0.6,0.1-1l-95.6-9.7l88.8-1.8l-82.5-7.1l90-1.5c0-0.3,0-0.6,0-0.9l-79.9-7.5l79.9-1.5c0-0.3,0-0.5,0-0.8l-68.5-6.4
	l68.3-1.2c0-0.2,0-0.4,0-0.6l-59.4-5.6l59.2-1.1c0,0,0,0,0,0h31.9c-1.3,20-4.4,55.3-11,78.9c-2.9,10.4-8.9,20.6-15.7,29.8l-37,37.9
	L750,641.8z"/>
<path class="st1" d="M829.5,516c2.2-2.3,22.1-23.1,39.6-15.3c0,0-27.1,3.1-40.6,27.2l-0.1,1.2c16.5-18.9,25-26.2,41.1-24.6
	s22.4,16.9,22.4,16.9c-0.6-6.4-2.8-23-21.1-27.7s-40.5,14.2-40.5,14.2L829.5,516z"/>
<path class="st1" d="M579.5,657.7c21.5,14,4.5,15.3,3.1,18.9c-0.5,1.3,1.9,2.8,5.2,4.2c34.3,0,104.3,0,104.3,0s79.6,0,110.6,0
	c26.3-5.2,50.3-23.1,50.3-23.1H579.5z M606.4,676.5l159.1-3.8l-83.9-2.8l98-2.2l-85.2-3.8l88.9-0.9l-67-4.1h120.6
	c0,0-22.2,17.5-33.2,17.5S606.4,676.5,606.4,676.5z"/>
</svg>
